<svg width="48" height="48" viewBox="0 0 48 48" fill="none" xmlns="http://www.w3.org/2000/svg">
<path d="M27.1 24.7C27.4 24.7 27.67 24.59 27.9 24.37C28.13 24.15 28.28 23.88 28.35 23.54C28.45 23.01 28.63 22.54 28.9 22.14C29.17 21.74 29.63 21.22 30.3 20.59C31.2 19.72 31.82 18.97 32.18 18.32C32.53 17.67 32.71 16.91 32.71 16.04C32.71 14.51 32.18 13.26 31.13 12.29C30.08 11.32 28.7 10.84 27.01 10.84C25.94 10.84 24.96 11.08 24.06 11.56C23.16 12.04 22.44 12.74 21.91 13.63C21.74 13.9 21.73 14.19 21.86 14.51C21.99 14.83 22.23 15.07 22.56 15.24C22.83 15.37 23.13 15.38 23.46 15.26C23.79 15.14 24.06 14.94 24.26 14.64C24.63 14.14 25.03 13.76 25.49 13.52C25.94 13.27 26.45 13.14 27.01 13.14C28.01 13.14 28.82 13.42 29.43 13.99C30.05 14.56 30.36 15.27 30.36 16.14C30.36 16.81 30.21 17.39 29.91 17.89C29.61 18.39 29.08 18.92 28.31 19.49C27.44 20.29 26.85 20.95 26.54 21.47C26.22 21.99 26.03 22.68 25.97 23.54C25.94 23.87 26.04 24.15 26.27 24.37C26.5 24.59 26.79 24.7 27.12 24.7H27.1ZM27.15 31C27.72 31 28.2 30.8 28.6 30.4C29 30 29.2 29.52 29.2 28.95C29.2 28.38 29 27.9 28.6 27.5C28.2 27.1 27.72 26.9 27.15 26.9C26.58 26.9 26.1 27.1 25.7 27.5C25.3 27.9 25.1 28.38 25.1 28.95C25.1 29.52 25.3 30 25.7 30.4C26.1 30.8 26.58 31 27.15 31ZM13 38C12.2 38 11.5 37.7 10.9 37.1C10.3 36.5 10 35.8 10 35V7C10 6.2 10.3 5.5 10.9 4.9C11.5 4.3 12.2 4 13 4H41C41.8 4 42.5 4.3 43.1 4.9C43.7 5.5 44 6.2 44 7V35C44 35.8 43.7 36.5 43.1 37.1C42.5 37.7 41.8 38 41 38H13ZM13 35H41V7H13V35ZM7 44C6.2 44 5.5 43.7 4.9 43.1C4.3 42.5 4 41.8 4 41V11.5C4 11.07 4.14 10.71 4.43 10.43C4.71 10.15 5.07 10 5.5 10C5.93 10 6.29 10.14 6.57 10.43C6.85 10.71 7 11.07 7 11.5V41H36.5C36.93 41 37.29 41.14 37.58 41.42C37.87 41.7 38 42.06 38 42.5C38 42.94 37.86 43.29 37.58 43.58C37.3 43.87 36.94 44 36.5 44H7ZM13 7V35V7Z" fill="#3750CC"/>
</svg>
