<svg width="48" height="48" viewBox="0 0 48 48" fill="none" xmlns="http://www.w3.org/2000/svg">
<path d="M19 40C15.93 40 13.33 38.93 11.2 36.8C9.07 34.67 8 32.07 8 29C8 25.93 9.07 23.33 11.2 21.2C13.33 19.07 15.93 18 19 18C20.2 18 21.37 18.19 22.5 18.58C23.63 18.97 24.68 19.5 25.65 20.2L34.85 11H30.5C30.07 11 29.71 10.86 29.42 10.57C29.14 10.29 29 9.92995 29 9.49995C29 9.06995 29.14 8.70995 29.42 8.42995C29.7 8.14995 30.06 7.99995 30.5 7.99995H38.5C38.93 7.99995 39.29 8.13995 39.58 8.42995C39.86 8.70995 40 9.06995 40 9.49995V17.5C40 17.93 39.86 18.29 39.58 18.58C39.3 18.86 38.94 19 38.5 19C38.06 19 37.71 18.86 37.42 18.58C37.14 18.3 37 17.94 37 17.5V13.15L27.8 22.3C28.5 23.27 29.04 24.32 29.42 25.48C29.8 26.63 30 27.81 30 29C30 32.07 28.93 34.67 26.8 36.8C24.67 38.93 22.07 40 19 40ZM19 21C16.8 21 14.92 21.78 13.35 23.35C11.78 24.92 11 26.8 11 29C11 31.2 11.78 33.08 13.35 34.65C14.92 36.22 16.8 37 19 37C21.2 37 23.08 36.22 24.65 34.65C26.22 33.08 27 31.2 27 29C27 26.8 26.22 24.92 24.65 23.35C23.08 21.78 21.2 21 19 21Z" fill="#1E1B3A"/>
</svg>
