<svg width="48" height="48" viewBox="0 0 48 48" fill="none" xmlns="http://www.w3.org/2000/svg">
<path d="M31.4501 27.0499L29.2501 24.8499C30.1168 22.4832 29.6668 20.5166 27.9001 18.9499C26.1334 17.3832 24.2168 16.9832 22.1501 17.7499L19.9501 15.5499C20.5168 15.1832 21.1501 14.9166 21.8501 14.7499C22.5501 14.5832 23.2668 14.4999 24.0001 14.4999C26.3668 14.4999 28.3751 15.3249 30.0251 16.9749C31.6751 18.6249 32.5001 20.6332 32.5001 22.9999C32.5001 23.7332 32.4084 24.4582 32.2251 25.1749C32.0418 25.8916 31.7834 26.5166 31.4501 27.0499ZM37.9001 33.4999L35.9001 31.4999C37.5334 30.2999 38.9584 28.9582 40.1751 27.4749C41.3918 25.9916 42.2834 24.4999 42.8501 22.9999C41.1834 19.2999 38.6834 16.3749 35.3501 14.2249C32.0168 12.0749 28.4001 10.9999 24.5001 10.9999C23.1001 10.9999 21.6668 11.1332 20.2001 11.3999C18.7334 11.6666 17.5834 11.9832 16.7501 12.3499L14.4501 9.9999C15.6168 9.46657 17.1084 8.9999 18.9251 8.5999C20.7418 8.1999 22.5168 7.9999 24.2501 7.9999C28.7501 7.9999 32.9001 9.23324 36.7001 11.6999C40.5001 14.1666 43.4001 17.4832 45.4001 21.6499C45.5001 21.8166 45.5668 22.0166 45.6001 22.2499C45.6334 22.4832 45.6501 22.7332 45.6501 22.9999C45.6501 23.2666 45.6334 23.5249 45.6001 23.7749C45.5668 24.0249 45.5001 24.2332 45.4001 24.3999C44.5334 26.2332 43.4668 27.9166 42.2001 29.4499C40.9334 30.9832 39.5001 32.3332 37.9001 33.4999ZM39.7001 43.6999L32.4001 36.5499C31.2334 37.0166 29.9168 37.3749 28.4501 37.6249C26.9834 37.8749 25.5001 37.9999 24.0001 37.9999C19.4001 37.9999 15.1834 36.7666 11.3501 34.2999C7.51676 31.8332 4.6001 28.5166 2.6001 24.3499C2.5001 24.1499 2.43343 23.9416 2.4001 23.7249C2.36676 23.5082 2.3501 23.2666 2.3501 22.9999C2.3501 22.7332 2.3751 22.4749 2.4251 22.2249C2.4751 21.9749 2.53343 21.7666 2.6001 21.5999C3.3001 20.0999 4.19176 18.6416 5.2751 17.2249C6.35843 15.8082 7.63343 14.4666 9.1001 13.1999L3.8501 7.9499C3.5501 7.6499 3.4001 7.2999 3.4001 6.8999C3.4001 6.4999 3.5501 6.1499 3.8501 5.8499C4.1501 5.5499 4.50843 5.3999 4.9251 5.3999C5.34176 5.3999 5.7001 5.5499 6.0001 5.8499L41.8001 41.6499C42.0668 41.9166 42.2001 42.2416 42.2001 42.6249C42.2001 43.0082 42.0668 43.3499 41.8001 43.6499C41.5334 43.9832 41.1918 44.1499 40.7751 44.1499C40.3584 44.1499 40.0001 43.9999 39.7001 43.6999ZM11.1501 15.2999C9.91676 16.1999 8.7251 17.3832 7.5751 18.8499C6.4251 20.3166 5.6001 21.6999 5.1001 22.9999C6.8001 26.6999 9.35843 29.6249 12.7751 31.7749C16.1918 33.9249 20.0668 34.9999 24.4001 34.9999C25.5001 34.9999 26.5834 34.9332 27.6501 34.7999C28.7168 34.6666 29.5168 34.4666 30.0501 34.1999L26.8501 30.9999C26.4834 31.1666 26.0334 31.2916 25.5001 31.3749C24.9668 31.4582 24.4668 31.4999 24.0001 31.4999C21.6668 31.4999 19.6668 30.6832 18.0001 29.0499C16.3334 27.4166 15.5001 25.3999 15.5001 22.9999C15.5001 22.4999 15.5418 21.9999 15.6251 21.4999C15.7084 20.9999 15.8334 20.5499 16.0001 20.1499L11.1501 15.2999Z" fill="currentColor"/>
</svg>
