<svg width="32" height="32" viewBox="0 0 32 32" fill="none" xmlns="http://www.w3.org/2000/svg">
<path d="M16.1167 17.5667C16.3945 17.5667 16.6279 17.4709 16.8167 17.2792C17.0056 17.0876 17.1001 16.8501 17.1001 16.5667V10.1001C17.1001 9.83342 17.0001 9.60564 16.8001 9.41675C16.6001 9.22786 16.3612 9.13342 16.0834 9.13342C15.8056 9.13342 15.5723 9.22925 15.3834 9.42092C15.1945 9.61258 15.1001 9.85008 15.1001 10.1334V16.6001C15.1001 16.8667 15.2001 17.0945 15.4001 17.2834C15.6001 17.4723 15.839 17.5667 16.1167 17.5667ZM15.9995 22.6667C16.311 22.6667 16.5723 22.5614 16.7834 22.3507C16.9945 22.1399 17.1001 21.8788 17.1001 21.5673C17.1001 21.2558 16.9947 20.9945 16.784 20.7834C16.5733 20.5723 16.3122 20.4667 16.0007 20.4667C15.6892 20.4667 15.4279 20.5721 15.2167 20.7828C15.0056 20.9935 14.9001 21.2547 14.9001 21.5661C14.9001 21.8777 15.0054 22.139 15.2161 22.3501C15.4269 22.5612 15.688 22.6667 15.9995 22.6667ZM15.9834 29.3334C14.1056 29.3334 12.3556 28.9945 10.7334 28.3167C9.11119 27.639 7.70008 26.7001 6.50008 25.5001C5.30008 24.3001 4.36119 22.889 3.68341 21.2667C3.00564 19.6445 2.66675 17.8945 2.66675 16.0167C2.66675 14.139 3.00564 12.389 3.68341 10.7667C4.36119 9.14453 5.30008 7.73341 6.50008 6.53341C7.70008 5.33341 9.11119 4.38897 10.7334 3.70008C12.3556 3.01119 14.1056 2.66675 15.9834 2.66675C17.8612 2.66675 19.6112 3.01119 21.2334 3.70008C22.8556 4.38897 24.2667 5.33341 25.4667 6.53341C26.6667 7.73341 27.6112 9.14453 28.3001 10.7667C28.989 12.389 29.3334 14.139 29.3334 16.0167C29.3334 17.8945 28.989 19.6445 28.3001 21.2667C27.6112 22.889 26.6667 24.3001 25.4667 25.5001C24.2667 26.7001 22.8556 27.639 21.2334 28.3167C19.6112 28.9945 17.8612 29.3334 15.9834 29.3334ZM16.0001 27.3334C19.1112 27.3334 21.7779 26.2223 24.0001 24.0001C26.2223 21.7779 27.3334 19.1112 27.3334 16.0001C27.3334 12.889 26.2223 10.2223 24.0001 8.00008C21.7779 5.77786 19.1112 4.66675 16.0001 4.66675C12.889 4.66675 10.2223 5.77786 8.00008 8.00008C5.77786 10.2223 4.66675 12.889 4.66675 16.0001C4.66675 19.1112 5.77786 21.7779 8.00008 24.0001C10.2223 26.2223 12.889 27.3334 16.0001 27.3334Z" fill="currentColor"/>
</svg>
