<svg width="40" height="40" viewBox="0 0 40 40" fill="none" xmlns="http://www.w3.org/2000/svg">
<path d="M14.7497 24.0417C14.108 24.0417 13.5747 23.825 13.1413 23.4C12.708 22.9667 12.4997 22.4334 12.4997 21.7917C12.4997 21.15 12.7163 20.6167 13.1413 20.1917C13.5747 19.7584 14.108 19.55 14.7497 19.55C15.3913 19.55 15.9247 19.7667 16.3497 20.1917C16.7747 20.6167 16.9913 21.1584 16.9913 21.7917C16.9913 22.425 16.7747 22.9667 16.3497 23.4C15.9247 23.8334 15.383 24.0417 14.7497 24.0417ZM25.2913 24.0417C24.6497 24.0417 24.1163 23.825 23.683 23.4C23.2497 22.975 23.0413 22.4334 23.0413 21.7917C23.0413 21.15 23.258 20.6167 23.683 20.1917C24.108 19.7667 24.6497 19.55 25.2913 19.55C25.933 19.55 26.4663 19.7667 26.8997 20.1917C27.333 20.625 27.5413 21.1584 27.5413 21.7917C27.5413 22.425 27.3247 22.9667 26.8997 23.4C26.4663 23.8334 25.933 24.0417 25.2913 24.0417ZM19.9997 34.1667C23.9413 34.1667 27.2913 32.7917 30.0413 30.0417C32.7913 27.2917 34.1663 23.9417 34.1663 20C34.1663 19.275 34.108 18.5667 33.9997 17.875C33.8913 17.1834 33.7497 16.5417 33.583 15.9584C33.0247 16.1 32.4247 16.1917 31.7747 16.25C31.1247 16.3084 30.4497 16.3334 29.758 16.3334C27.0663 16.3334 24.5163 15.775 22.108 14.6667C19.708 13.5584 17.658 11.975 15.958 9.91671C15.0163 12.1667 13.658 14.1334 11.8913 15.8167C10.1247 17.5 8.10801 18.8 5.83301 19.7084V20C5.83301 23.9417 7.20801 27.2917 9.958 30.0417C12.708 32.7917 16.058 34.1667 19.9997 34.1667ZM19.9997 36.6667C17.6913 36.6667 15.5247 36.2334 13.4997 35.35C11.4747 34.475 9.70801 33.2917 8.20801 31.7917C6.70801 30.2917 5.51634 28.525 4.64134 26.5C3.76634 24.475 3.33301 22.3084 3.33301 20C3.33301 17.6917 3.77467 15.525 4.64134 13.5C5.51634 11.475 6.70801 9.70837 8.20801 8.20837C9.70801 6.70837 11.4747 5.51671 13.4997 4.64171C15.5247 3.76671 17.6913 3.33337 19.9997 3.33337C22.308 3.33337 24.4747 3.77504 26.4997 4.64171C28.5247 5.51671 30.2913 6.70837 31.7913 8.20837C33.2913 9.70837 34.4747 11.475 35.3497 13.5C36.2247 15.525 36.6663 17.6917 36.6663 20C36.6663 22.3084 36.233 24.475 35.3497 26.5C34.4747 28.525 33.2913 30.2917 31.7913 31.7917C30.2913 33.2917 28.5247 34.475 26.4997 35.35C24.4747 36.225 22.308 36.6667 19.9997 36.6667ZM16.1663 6.37504C18.608 9.23337 20.8663 11.1917 22.9413 12.25C25.008 13.3084 27.283 13.8334 29.758 13.8334C30.4247 13.8334 30.9497 13.8167 31.3413 13.7917C31.733 13.7667 32.158 13.6834 32.633 13.5417C31.383 11.2917 29.683 9.44171 27.533 8.00004C25.383 6.55837 22.8747 5.83337 20.008 5.83337C19.258 5.83337 18.5497 5.89171 17.883 6.00004C17.2163 6.10837 16.6497 6.23337 16.1747 6.37504H16.1663ZM6.20801 16.75C7.54134 16.25 9.06634 15.1167 10.7747 13.35C12.483 11.5834 13.6997 9.45837 14.4163 6.95837C11.9997 8.04171 10.1747 9.42504 8.94134 11.1C7.70801 12.7834 6.79967 14.6667 6.20801 16.75Z" fill="#1E1B3A"/>
</svg>
