<svg width="48" height="48" viewBox="0 0 48 48" fill="none" xmlns="http://www.w3.org/2000/svg">
<g clip-path="url(#clip0_1398_19717)">
<path d="M0 48L48 48L48 0L4.19629e-06 -4.19629e-06L0 48Z" fill="none"/>
<path d="M25.05 9.09999C25.32 9.36999 25.45 9.72 25.45 10.15C25.45 10.58 25.32 10.93 25.05 11.2L13.75 22.5L38.5 22.5C38.93 22.5 39.29 22.64 39.57 22.92C39.85 23.2 40 23.56 40 24C40 24.44 39.86 24.79 39.57 25.08C39.29 25.36 38.93 25.5 38.5 25.5L13.75 25.5L25.05 36.8C25.32 37.07 25.45 37.42 25.45 37.87C25.45 38.32 25.32 38.68 25.05 38.94C24.78 39.21 24.43 39.34 24 39.34C23.57 39.34 23.22 39.21 22.95 38.94L9.05 25.04C8.88 24.87 8.77 24.71 8.7 24.54C8.63 24.37 8.6 24.19 8.6 23.99C8.6 23.82 8.63 23.65 8.7 23.47C8.77 23.29 8.88 23.11 9.05 22.95L22.95 9.04999C23.22 8.77999 23.57 8.65999 24 8.66999C24.43 8.68999 24.78 8.82999 25.05 9.09L25.05 9.09999Z" fill="#3750CC"/>
</g>
<defs>
<clipPath id="clip0_1398_19717">
<rect width="48" height="48" fill="none" transform="translate(48 48) rotate(-180)"/>
</clipPath>
</defs>
</svg>
