<svg width="176" height="45" viewBox="0 0 176 45" fill="none" xmlns="http://www.w3.org/2000/svg">
<g clip-path="url(#clip0_1295_30638)">
<path d="M64.6384 22.1144C64.6384 16.8429 67.5907 14.008 71.5119 14.008C73.7123 14.008 75.8289 15.0953 76.626 17.0172V10.9824C76.626 9.80314 77.2761 9.15381 78.4567 9.15381H78.9694C80.15 9.15381 80.8001 9.80314 80.8001 10.9824V28.1095C80.8001 29.2887 80.15 29.9381 78.9694 29.9381H78.4567C77.3036 29.9381 76.626 29.3615 76.626 28.3744V27.3009C75.8289 29.1693 73.7109 30.2579 71.5297 30.2579C67.6168 30.2579 64.6384 27.3943 64.6384 22.1131V22.1144ZM76.7538 22.1062C76.7538 19.2123 75.1582 17.4085 72.7639 17.4085C70.3697 17.4085 68.8015 19.2027 68.8015 22.1062C68.8015 25.0097 70.4068 26.8314 72.7997 26.8314C75.1925 26.8314 76.7525 25.0275 76.7525 22.1062H76.7538Z" fill="#3750CC"/>
<path d="M83.8513 22.1145C83.8513 17.2822 87.1403 14.0081 91.9136 14.0081C96.6869 14.0081 99.4069 16.8072 99.6941 21.2372C99.7725 22.4535 99.1251 23.0658 97.862 23.0658H88.0254C88.0982 25.6398 89.6761 27.1321 92.2338 27.1321C93.655 27.1321 94.5882 26.7477 95.4829 26.0091C96.1674 25.4449 96.588 25.0701 97.5391 25.3007L97.917 25.3927C99.1719 25.6975 99.3835 26.3976 98.5946 27.3943C97.26 29.2091 95.0074 30.2222 92.0428 30.2222C87.0867 30.2222 83.8513 27.0373 83.8513 22.1145ZM95.8389 20.3394C95.674 18.2418 94.2432 16.9047 92.0153 16.9047C89.7874 16.9047 88.3566 18.0949 88.0996 20.3394H95.8403H95.8389Z" fill="#3750CC"/>
<path d="M102.947 23.7068V17.4166H102.275C101.287 17.4166 100.74 16.814 100.74 15.8255C100.74 14.8371 101.251 14.2619 102.149 14.2619H102.949V12.9989C102.949 11.9021 103.459 11.3324 104.653 11.0784L105.137 10.9754C106.54 10.6762 107.149 11.228 107.149 12.5377V14.2619H109.626C110.897 14.2619 111.456 14.811 111.456 15.8255C111.456 16.84 110.897 17.4166 109.626 17.4166H107.149V23.332C107.149 25.9266 107.908 26.8698 109.861 26.9411C110.85 26.9768 111.488 27.4106 111.54 28.3524C111.598 29.382 111.126 30.0533 109.965 30.1686C109.696 30.1961 109.425 30.2057 109.177 30.2057C104.909 30.2057 102.949 28.4952 102.949 23.7082L102.947 23.7068Z" fill="#3750CC"/>
<path d="M112.743 22.1145C112.743 17.2822 116.032 14.0081 120.805 14.0081C125.578 14.0081 128.298 16.8072 128.585 21.2372C128.664 22.4535 128.016 23.0658 126.753 23.0658H116.917C116.99 25.6398 118.567 27.1321 121.125 27.1321C122.546 27.1321 123.48 26.7477 124.374 26.0091C125.059 25.4449 125.479 25.0701 126.43 25.3007L126.808 25.3927C128.063 25.6975 128.275 26.3976 127.486 27.3943C126.151 29.2091 123.899 30.2222 120.934 30.2222C115.978 30.2222 112.743 27.0373 112.743 22.1145ZM124.73 20.3394C124.565 18.2418 123.135 16.9047 120.907 16.9047C118.679 16.9047 117.248 18.0949 116.991 20.3394H124.732H124.73Z" fill="#3750CC"/>
<path d="M138.928 30.2237C134.42 30.2237 131.021 26.9757 131.021 22.1159C131.021 17.2562 134.365 14.0095 138.928 14.0095C142.345 14.0095 144.688 15.2917 145.814 17.5967C146.355 18.7031 145.918 19.5213 144.738 19.719L144.453 19.7671C143.454 19.9359 142.98 19.5968 142.347 18.883C141.586 17.9206 140.522 17.4168 139.138 17.4168C136.791 17.4168 135.195 19.3031 135.195 22.1146C135.195 24.9261 136.791 26.7944 139.138 26.7944C140.487 26.7944 141.55 26.2728 142.312 25.3475C142.943 24.6336 143.402 24.3028 144.397 24.4607L144.611 24.495C145.866 24.6954 146.32 25.4875 145.829 26.5405C144.743 28.8687 142.309 30.2223 138.929 30.2223L138.928 30.2237Z" fill="#3750CC"/>
<path d="M149.952 23.7068V17.4166H149.28C148.292 17.4166 147.745 16.814 147.745 15.8255C147.745 14.8371 148.256 14.2619 149.154 14.2619H149.954V12.9989C149.954 11.9021 150.463 11.3324 151.658 11.0784L152.142 10.9754C153.545 10.6762 154.154 11.228 154.154 12.5377V14.2619H156.63C157.902 14.2619 158.461 14.811 158.461 15.8255C158.461 16.84 157.902 17.4166 156.63 17.4166H154.154V23.332C154.154 25.9266 154.912 26.8698 156.865 26.9411C157.855 26.9768 158.493 27.4106 158.545 28.3524C158.603 29.382 158.131 30.0533 156.97 30.1686C156.701 30.1961 156.43 30.2057 156.182 30.2057C151.913 30.2057 149.954 28.4952 149.954 23.7082L149.952 23.7068Z" fill="#3750CC"/>
<path d="M159.748 22.1145C159.748 16.4585 163.769 14.0081 167.874 14.0081C171.98 14.0081 176.001 16.4585 176.001 22.1145C176.001 27.7704 171.998 30.2593 167.874 30.2593C163.751 30.2593 159.748 27.8253 159.748 22.1145ZM171.835 22.1062C171.835 19.1671 170.203 17.4085 167.865 17.4085C165.527 17.4085 163.902 19.1492 163.902 22.1062C163.902 25.0632 165.535 26.8314 167.883 26.8314C170.23 26.8314 171.835 25.0825 171.835 22.1062Z" fill="#3750CC"/>
<path d="M5.06192 38.8751C5.18699 39.2156 5.45912 39.2156 5.54983 39.2156H51.5252C53.1704 39.2156 54.509 37.8771 54.509 36.2324V7.99525C54.509 6.35338 53.1704 5.01489 51.5252 5.01489H16.4778C14.8326 5.01489 13.4939 6.35338 13.4939 7.99525V20.3587C13.4939 27.2722 10.4771 33.8108 5.21173 38.2999C5.14301 38.3575 4.93685 38.5346 5.06192 38.8751Z" fill="white"/>
<path d="M0.350455 40.6103C1.16136 42.8095 3.20373 44.2304 5.54985 44.2304H51.5252C55.9398 44.2304 59.5298 40.6446 59.5298 36.2338V7.99658C59.5298 3.58714 55.9398 0 51.5252 0H16.4778C12.0632 0 8.47322 3.58714 8.47322 7.99658V20.3601C8.47322 25.8032 6.09686 30.9512 1.95027 34.4862C0.166284 36.0086 -0.461821 38.411 0.350455 40.6103ZM5.21174 38.3012C10.4771 33.8122 13.4939 27.2735 13.4939 20.3601V7.99658C13.4939 6.35471 14.8326 5.01622 16.4778 5.01622H51.5252C53.1704 5.01622 54.5091 6.35471 54.5091 7.99658V36.2338C54.5091 37.8784 53.1704 39.2169 51.5252 39.2169H5.54985C5.45914 39.2169 5.187 39.2169 5.06193 38.8764C4.93686 38.536 5.14302 38.3589 5.21174 38.3012Z" fill="#3750CC"/>
<path d="M25.2094 19.4266C25.2094 24.0996 29.0399 27.8775 33.7348 27.8007C38.225 27.7265 41.9002 24.057 41.9758 19.5721C41.9827 19.1712 41.9607 18.7759 41.914 18.3887C41.7958 17.4332 40.9794 16.718 40.0159 16.718H27.1707C26.2003 16.718 25.3867 17.4442 25.2699 18.4066C25.2286 18.7402 25.208 19.0806 25.208 19.4266H25.2094Z" fill="#3750CC"/>
</g>
<defs>
<clipPath id="clip0_1295_30638">
<rect width="176" height="44.2304" fill="white"/>
</clipPath>
</defs>
</svg>
