<svg width="64" height="64" viewBox="0 0 64 64" fill="none" xmlns="http://www.w3.org/2000/svg">
<path d="M15.3333 56.0001C14.7599 56.0001 14.2799 55.8135 13.9066 55.4401C13.5333 55.0668 13.3333 54.5868 13.3333 54.0001C13.3333 53.4135 13.5199 52.9468 13.9066 52.5601C14.2799 52.1868 14.7599 52.0001 15.3333 52.0001H27.1999V45.0668H26.1999C22.5999 45.0668 19.5599 43.8268 17.0666 41.3335C14.5733 38.8401 13.3333 35.8001 13.3333 32.2001C13.3333 29.4935 14.0799 27.0268 15.5733 24.8401C17.0666 22.6535 19.1466 21.0801 21.8133 20.1468C21.9866 18.4535 22.7733 17.0401 24.1733 15.8801C25.5733 14.7201 27.1599 14.2135 28.9466 14.3468L28.2133 12.2801C27.9866 11.7468 27.9999 11.2401 28.2399 10.7468C28.4799 10.2535 28.8799 9.92012 29.4133 9.74679L30.2799 9.41346L30.2133 9.14679C30.0399 8.52012 30.0533 7.92012 30.2399 7.34679C30.4399 6.77346 30.8533 6.37346 31.4799 6.14679C32.1066 5.92012 32.6933 5.94679 33.2399 6.21346C33.7999 6.48012 34.2266 6.92012 34.5466 7.54679L34.6799 7.81346L35.4799 7.54679C36.0133 7.32012 36.5066 7.33346 36.9733 7.58679C37.4399 7.82679 37.7866 8.20012 37.9999 8.68012L44.1333 24.6135C44.3599 25.1468 44.3466 25.6535 44.1066 26.1468C43.8666 26.6401 43.4799 26.9868 42.9333 27.2135L41.9999 27.5468L42.1333 27.8135C42.3999 28.3468 42.4133 28.9068 42.1599 29.4801C41.9199 30.0535 41.5066 30.4535 40.9333 30.6801C40.3066 30.9068 39.7199 30.8935 39.1599 30.6535C38.5999 30.4135 38.1733 29.9735 37.8533 29.3468L37.7199 29.0801L36.7199 29.4135C36.1866 29.6401 35.6799 29.6268 35.1866 29.3868C34.6933 29.1468 34.3599 28.7735 34.1866 28.2935L33.1866 25.6268C32.5199 26.3868 31.7333 26.9201 30.8266 27.2535C29.9199 27.5868 28.9466 27.7335 27.9333 27.6935C26.8666 27.6535 25.8133 27.2935 24.7599 26.6268C23.7199 25.9601 22.9199 25.1201 22.3866 24.0935C20.6933 24.8535 19.4266 25.9735 18.5866 27.4668C17.7466 28.9601 17.3199 30.5468 17.3199 32.2268C17.3199 34.7201 18.1733 36.8135 19.8933 38.5335C21.6133 40.2535 23.7066 41.0935 26.1866 41.0935H47.3199C47.8933 41.0935 48.3733 41.2801 48.7599 41.6668C49.1333 42.0401 49.3199 42.5201 49.3199 43.0935C49.3199 43.6668 49.1333 44.1468 48.7599 44.5335C48.3866 44.9201 47.9066 45.0935 47.3199 45.0935H31.1866V52.0268H48.6533C49.2266 52.0268 49.7066 52.2135 50.0933 52.5868C50.4799 52.9601 50.6533 53.4401 50.6533 54.0268C50.6533 54.6135 50.4666 55.0801 50.0933 55.4668C49.7199 55.8535 49.2399 56.0268 48.6533 56.0268H15.3333V56.0001ZM37.0666 25.8668L40.5999 24.6001L35.2666 10.8668L31.7333 12.1335L37.0666 25.8668ZM28.3999 24.3335C29.3333 24.3335 30.1199 24.0135 30.7733 23.3601C31.4266 22.7068 31.7333 21.9201 31.7333 21.0001C31.7333 20.0668 31.4133 19.2801 30.7733 18.6401C30.1333 18.0001 29.3333 17.6668 28.3999 17.6668C27.4666 17.6668 26.6799 17.9868 26.0399 18.6401C25.3999 19.2801 25.0666 20.0668 25.0666 21.0001C25.0666 21.9335 25.3866 22.7201 26.0399 23.3601C26.6933 24.0001 27.4799 24.3335 28.3999 24.3335Z" fill="#3750CC"/>
</svg>
