<svg width="32" height="32" viewBox="0 0 32 32" fill="none" xmlns="http://www.w3.org/2000/svg">
<path d="M16.0039 20.9999C17.5791 20.9999 18.9167 20.4486 20.0167 19.346C21.1167 18.2434 21.6667 16.9045 21.6667 15.3293C21.6667 13.7542 21.1153 12.4166 20.0127 11.3166C18.9101 10.2166 17.5712 9.66659 15.9961 9.66659C14.4209 9.66659 13.0833 10.2179 11.9833 11.3205C10.8833 12.4231 10.3333 13.762 10.3333 15.3372C10.3333 16.9123 10.8846 18.2499 11.9873 19.3499C13.0899 20.4499 14.4287 20.9999 16.0039 20.9999ZM15.9922 19.0666C14.9529 19.0666 14.0722 18.7029 13.35 17.9754C12.6278 17.248 12.2667 16.3646 12.2667 15.3254C12.2667 14.2862 12.6304 13.4055 13.3578 12.6833C14.0853 11.961 14.9686 11.5999 16.0078 11.5999C17.047 11.5999 17.9278 11.9636 18.65 12.6911C19.3722 13.4186 19.7333 14.3019 19.7333 15.3411C19.7333 16.3803 19.3696 17.261 18.6422 17.9833C17.9147 18.7055 17.0314 19.0666 15.9922 19.0666ZM16 25.3333C12.9333 25.3333 10.1389 24.4999 7.61665 22.8333C5.09443 21.1666 3.14604 18.9657 1.77148 16.2307C1.70159 16.1213 1.64998 15.9869 1.61665 15.8275C1.58332 15.668 1.56665 15.5033 1.56665 15.3333C1.56665 15.1632 1.58332 14.9985 1.61665 14.8391C1.64998 14.6796 1.70159 14.5452 1.77148 14.4358C3.14604 11.7008 5.09443 9.49992 7.61665 7.83325C10.1389 6.16659 12.9333 5.33325 16 5.33325C19.0667 5.33325 21.8611 6.16659 24.3833 7.83325C26.9055 9.49992 28.8539 11.7008 30.2285 14.4358C30.2984 14.5452 30.35 14.6796 30.3833 14.8391C30.4167 14.9985 30.4333 15.1632 30.4333 15.3333C30.4333 15.5033 30.4167 15.668 30.3833 15.8275C30.35 15.9869 30.2984 16.1213 30.2285 16.2307C28.8539 18.9657 26.9055 21.1666 24.3833 22.8333C21.8611 24.4999 19.0667 25.3333 16 25.3333ZM15.9944 23.3333C18.687 23.3333 21.1611 22.6055 23.4167 21.1499C25.6722 19.6944 27.3889 17.7555 28.5667 15.3333C27.3889 12.911 25.6741 10.9721 23.4223 9.51659C21.1705 8.06103 18.6982 7.33325 16.0056 7.33325C13.313 7.33325 10.8389 8.06103 8.58332 9.51659C6.32776 10.9721 4.59998 12.911 3.39998 15.3333C4.59998 17.7555 6.32588 19.6944 8.57768 21.1499C10.8295 22.6055 13.3017 23.3333 15.9944 23.3333Z" fill="currentColor"/>
</svg>
