<svg width="64" height="64" viewBox="0 0 64 64" fill="none" xmlns="http://www.w3.org/2000/svg">
<path d="M64 0H0V64H64V0Z" fill="none"/>
<path d="M32 34.7999L18 48.7999C17.6 49.1999 17.1333 49.3999 16.6 49.3999C16.0666 49.3999 15.6 49.1999 15.2 48.7999C14.8 48.3999 14.6 47.9332 14.6 47.3999C14.6 46.8666 14.8 46.3999 15.2 45.9999L29.2 31.9999L15.2 17.9999C14.8 17.5999 14.6 17.1332 14.6 16.5999C14.6 16.0666 14.8 15.5999 15.2 15.1999C15.6 14.7999 16.0666 14.5999 16.6 14.5999C17.1333 14.5999 17.6 14.7999 18 15.1999L32 29.1999L46 15.1999C46.4 14.7999 46.8666 14.5999 47.4 14.5999C47.9333 14.5999 48.4 14.7999 48.8 15.1999C49.2 15.5999 49.4 16.0666 49.4 16.5999C49.4 17.1332 49.2 17.5999 48.8 17.9999L34.8 31.9999L48.8 45.9999C49.2 46.3999 49.4 46.8666 49.4 47.3999C49.4 47.9332 49.2 48.3999 48.8 48.7999C48.4 49.1999 47.9333 49.3999 47.4 49.3999C46.8666 49.3999 46.4 49.1999 46 48.7999L32 34.7999V34.7999Z" fill="#3750CC"/>
</svg>
