<svg width="114" height="156" viewBox="0 0 114 156" fill="none" xmlns="http://www.w3.org/2000/svg">
<path d="M5.2756 53.5395H108.724V128.172C108.724 134.08 103.924 138.88 98.0169 138.88H15.9757C10.0683 138.88 5.26817 134.08 5.26817 128.172V53.5395H5.2756Z" fill="#FF9B64" stroke="#3750CC" stroke-width="3" stroke-miterlimit="10"/>
<path d="M103.397 156H10.6033C11.5025 149.922 13.531 144.104 16.5478 138.88C20.5232 131.984 26.215 126.114 33.289 122.012C36.8185 119.969 40.623 118.371 44.6281 117.279C48.5886 116.209 52.7348 115.644 57 115.644C61.2652 115.644 65.4114 116.209 69.372 117.287C69.6617 117.368 69.9516 117.45 70.2413 117.532C74.4545 118.758 78.4447 120.556 82.1006 122.852C88.5652 126.902 93.774 132.445 97.4745 138.88C100.491 144.111 102.512 149.922 103.397 156Z" fill="white" stroke="#3750CC" stroke-width="3"/>
<path d="M44.5686 109.247H69.424V116.172C69.424 123.03 63.8584 128.596 57 128.596C50.1415 128.596 44.576 123.03 44.576 116.172V109.247H44.5686Z" fill="#F4B9AB" stroke="#3750CC" stroke-width="3"/>
<path d="M14.1552 92.9959C20.828 92.9959 26.2373 87.5866 26.2373 80.9138C26.2373 74.241 20.828 68.8316 14.1552 68.8316C7.48238 68.8316 2.07301 74.241 2.07301 80.9138C2.07301 87.5866 7.48238 92.9959 14.1552 92.9959Z" fill="#F4B9AB" stroke="#3750CC" stroke-width="3"/>
<path d="M99.8448 92.9959C106.518 92.9959 111.927 87.5866 111.927 80.9138C111.927 74.241 106.518 68.8316 99.8448 68.8316C93.1721 68.8316 87.7627 74.241 87.7627 80.9138C87.7627 87.5866 93.1721 92.9959 99.8448 92.9959Z" fill="#F4B9AB" stroke="#3750CC" stroke-width="3"/>
<path d="M100.566 54.4386V70.5258C100.566 94.5861 81.0603 114.099 57 114.099C32.9397 114.099 13.4344 94.5861 13.4344 70.5258V54.4386C13.4344 30.3709 32.9397 10.8655 57 10.8655C69.0301 10.8655 79.9234 15.74 87.8073 23.6239C95.6911 31.5077 100.566 42.401 100.566 54.4386Z" fill="#F6C6B9" stroke="#3750CC" stroke-width="3"/>
<path d="M61.0274 62.8426C61.0274 60.6142 59.2226 58.8077 56.9963 58.8077C54.77 58.8077 52.9652 60.6142 52.9652 62.8426V74.8355C52.9652 77.0639 54.77 78.8704 56.9963 78.8704C59.2226 78.8704 61.0274 77.0639 61.0274 74.8355V62.8426Z" fill="#F4B9AB" stroke="#3750CC" stroke-width="3"/>
<path d="M35.5181 68.0812C39.8148 68.0812 43.298 64.598 43.298 60.3013C43.298 56.0046 39.8148 52.5215 35.5181 52.5215C31.2215 52.5215 27.7383 56.0046 27.7383 60.3013C27.7383 64.598 31.2215 68.0812 35.5181 68.0812Z" fill="#3750CC"/>
<path opacity="0.8" d="M37.8439 59.848C38.8781 59.848 39.7164 59.0097 39.7164 57.9755C39.7164 56.9414 38.8781 56.103 37.8439 56.103C36.8098 56.103 35.9714 56.9414 35.9714 57.9755C35.9714 59.0097 36.8098 59.848 37.8439 59.848Z" fill="white"/>
<path d="M78.4819 68.0812C82.7785 68.0812 86.2617 64.598 86.2617 60.3013C86.2617 56.0046 82.7785 52.5215 78.4819 52.5215C74.1852 52.5215 70.702 56.0046 70.702 60.3013C70.702 64.598 74.1852 68.0812 78.4819 68.0812Z" fill="#3750CC"/>
<path opacity="0.8" d="M80.8076 59.848C81.8418 59.848 82.6802 59.0097 82.6802 57.9755C82.6802 56.9414 81.8418 56.103 80.8076 56.103C79.7735 56.103 78.9351 56.9414 78.9351 57.9755C78.9351 59.0097 79.7735 59.848 80.8076 59.848Z" fill="white"/>
<path opacity="0.3" d="M79.4701 90.0163C82.9255 90.0163 85.7267 87.2151 85.7267 83.7597C85.7267 80.3043 82.9255 77.5031 79.4701 77.5031C76.0147 77.5031 73.2136 80.3043 73.2136 83.7597C73.2136 87.2151 76.0147 90.0163 79.4701 90.0163Z" fill="#FF5C6B"/>
<path opacity="0.3" d="M34.5224 90.0163C37.9779 90.0163 40.779 87.2151 40.779 83.7597C40.779 80.3043 37.9779 77.5031 34.5224 77.5031C31.067 77.5031 28.2659 80.3043 28.2659 83.7597C28.2659 87.2151 31.067 90.0163 34.5224 90.0163Z" fill="#FF5C6B"/>
<path d="M108.724 53.5395C108.724 54.0596 108.717 54.5723 108.702 55.085C88.5132 52.0533 70.494 42.401 56.9108 28.4166C43.3723 42.3638 25.4125 51.9939 5.2979 55.0553C5.28304 54.55 5.2756 54.0447 5.2756 53.5395C5.2756 24.9762 28.4293 1.81506 57 1.81506C85.5707 1.81506 108.724 24.9762 108.724 53.5395Z" fill="#FF9B64" stroke="#3750CC" stroke-width="3" stroke-miterlimit="10"/>
<path d="M66.2882 93.0628C66.2882 98.2494 62.0454 102.44 56.8365 102.351C51.858 102.269 47.7861 98.1973 47.7043 93.2188C47.6969 92.773 47.7192 92.3346 47.7712 91.9036C47.9049 90.841 48.8041 90.0534 49.8741 90.0534H64.1111C65.1885 90.0534 66.0876 90.8559 66.2139 91.9259C66.2585 92.2974 66.2808 92.6764 66.2808 93.0554L66.2882 93.0628Z" fill="#3750CC"/>
</svg>
