<svg width="64" height="64" viewBox="0 0 64 64" fill="none" xmlns="http://www.w3.org/2000/svg">
<path d="M5.33325 42.9333V8.13334C5.33325 7.50668 5.62658 6.89334 6.19991 6.26668C6.77324 5.64001 7.37325 5.33334 7.99992 5.33334H42.5999C43.2666 5.33334 43.8933 5.62668 44.4666 6.24001C45.0399 6.84001 45.3333 7.46668 45.3333 8.13334V31.8667C45.3333 32.4933 45.0399 33.1067 44.4666 33.7333C43.8933 34.36 43.2666 34.6667 42.5999 34.6667H15.9999L7.06659 43.6C6.75992 43.9067 6.38659 43.9867 5.95992 43.8267C5.53325 43.6667 5.33325 43.3733 5.33325 42.9333ZM18.7333 48C18.1066 48 17.4932 47.6933 16.8932 47.0667C16.2933 46.44 15.9866 45.8267 15.9866 45.2V38.6667H49.3199V16H55.9866C56.6133 16 57.2132 16.3067 57.7866 16.9333C58.3599 17.56 58.6533 18.2 58.6533 18.8667V56.2C58.6533 56.64 58.4399 56.9467 58.0266 57.0933C57.5999 57.2533 57.2399 57.1733 56.9199 56.8667L48.0533 48H18.7199H18.7333ZM41.3333 9.33334H9.33325V30.6667H41.3333V9.33334Z" fill="#3750CC"/>
</svg>
